# xmcd
#
# Track frame offsets:
#	150
#	10388
#	28180
#	40966
#	56782
#	70543
#	84773
#	98652
#	112516
#	127988
#	140807
#	154941
#	171150
#
# Disc length: 2452 seconds
# Revision: 0
# Processed by: cddbd v1.5.2PL0 Copyright (c) Steve Scherf et al.
# Submitted via: dBpowerAMP V12.0
#
DISCID=a109920d
DTITLE=Josh Sloane and Coaltown - Josh Sloane and Coaltown
DYEAR=2011
DGENRE=Bluegrass
TTITLE0=Virginia Bound
TTITLE1=Daddies Don't Cry
TTITLE2=Destination Heartache
TTITLE3=Mama's Midnight Altar Calls
TTITLE4=A Lovin' Man
TTITLE5=One Step Ahead
TTITLE6=Cold As Ice
TTITLE7=Where I Use To Lie
TTITLE8=Big Blue Raindrops
TTITLE9=Bluegrass And Me
TTITLE10=Hillbilly Girl
TTITLE11=For The Love Of Ellen Moore
TTITLE12=Long Legged Woman
EXTD=
EXTT0=
EXTT1=
EXTT2=
EXTT3=
EXTT4=
EXTT5=
EXTT6=
EXTT7=
EXTT8=
EXTT9=
EXTT10=
EXTT11=
EXTT12=
PLAYORDER=
